<?xml version="1.0" encoding="utf-8"?>
<!-- Generator: Adobe Illustrator 27.2.0, SVG Export Plug-In . SVG Version: 6.00 Build 0)  -->
<svg version="1.1" id="Layer_1" xmlns="http://www.w3.org/2000/svg" xmlns:xlink="http://www.w3.org/1999/xlink" x="0px" y="0px"
	 viewBox="0 0 16 16" style="enable-background:new 0 0 16 16;" xml:space="preserve">
<style type="text/css">
	.st0{fill:#000066;}
	.st1{fill-rule:evenodd;clip-rule:evenodd;fill:#FFFFFF;}
</style>
<circle class="st0" cx="8" cy="8" r="7.1"/>
<g>
	<path class="st1" d="M9.4,9.5L9.4,9.5c0.7-1.1,1.1-2.1,1.1-3.4c0-1.3-0.4-2.4-1.1-3.4h0c-0.6,1-1,2-1.1,3.2
		C8.3,7.1,8.7,8.4,9.4,9.5L9.4,9.5z M9.4,9.2L9.4,9.2C9.2,8.8,9.1,8.4,9.1,8c0-0.4,0.1-0.9,0.3-1.2v0C9.6,7.1,9.7,7.5,9.7,8
		C9.7,8.4,9.6,8.8,9.4,9.2L9.4,9.2z M8.6,5.8C8.7,4.9,9,4,9.4,3.2l0,0C9.9,4.1,10.2,5,10.2,6c0,0.5,0,0.9-0.1,1.3
		c0-0.5,0-0.9-0.1-1.3C9.9,5.4,9.7,4.8,9.4,4.3l0,0C9.1,4.8,9,5.3,8.8,5.8c-0.1,0.5-0.1,1-0.1,1.5C8.6,6.8,8.6,6.3,8.6,5.8L8.6,5.8z
		"/>
	<path class="st1" d="M8.3,10.7c0.2-0.2,0.4-0.3,0.7-0.3c0.5,0,0.8,0.3,0.8,0.8c0,0.9-1.1,1.4-1.9,1.4c-1.1-0.1-1.8-0.7-1.9-1.7
		c-0.1-0.6,0.1-1.3,0.5-1.7c0.4-0.4,1-0.6,1.6-0.6V5.9c-2,0-3.5,1.4-3.6,3.4C4.4,11.4,6,12.9,8,12.9c1.1,0,1.9-0.4,2.6-1V9.6H8.3
		V10.7L8.3,10.7z"/>
</g>
</svg>
